<svg xmlns="http://www.w3.org/2000/svg" xmlns:xlink="http://www.w3.org/1999/xlink" viewBox="0 0 199.61 130.44"><defs><style>.cls-1{fill:none;}.cls-2{clip-path:url(#clip-path);}.cls-3{fill:#fff;}.cls-4{clip-path:url(#clip-path-2);}.cls-5{fill:#a2c617;}.cls-6{fill:#00562a;}.cls-7{fill:#ffed00;}.cls-8{fill:#085a2b;}</style><clipPath id="clip-path"><rect class="cls-1" y="4.11" width="190.21" height="123.05"/></clipPath><clipPath id="clip-path-2"><rect class="cls-1" x="0.1" width="199.52" height="130.44"/></clipPath></defs><g id="Calque_2" data-name="Calque 2"><g id="Calque_1-2" data-name="Calque 1"><g class="cls-2"><path class="cls-3" d="M110.56,11a109,109,0,0,0-11.37.6c2.35-.63,4.7-1.2,7.08-1.68a102.58,102.58,0,0,1,13.3-1.76c1.36-.09,2.72-.16,4.08-.19a92.14,92.14,0,0,1,12.75.55h.16c11.95,1.15,3.52-1.82.72-2.46A86.4,86.4,0,0,0,123.7,4.25,95.86,95.86,0,0,0,105.63,5c-2.81.37-5.62.89-8.4,1.5l-.55.12c-3,.68-5.92,1.47-8.84,2.42s-5.8,2-8.65,3.22q-2.35,1-4.68,2.15c-1.25.61-2.49,1.25-3.72,1.91A93.15,93.15,0,0,0,55.08,27c-1,.83-1.95,1.71-2.9,2.59A60.22,60.22,0,0,0,37.45,46.06a20.61,20.61,0,0,0-5.39-.81,13.2,13.2,0,0,0-3,.29c-3.74.75-8.52,3-14.61,6.74L9.61,55.42l-4.3,2.8C3.42,59,0,62.5,0,62.5l1.26,1.85.16.24C2.37,66,3.91,68.45,6,71.85c2.6,4.31,2.87,4.75,3,4.88v0H9L24.37,99.09c.5.75,13.53,19.19,15.25,21l1.13,1.82,1.78-.87a71.48,71.48,0,0,0,6.82-3.66l.08,0,.08,0a2.47,2.47,0,0,0,1.08-2.71,7.22,7.22,0,0,0-.39-1.17c-.3-.71-.76-1.64-1.42-2.86-1.1-2-2.72-4.83-4.81-8.28-.7-1.14-1.21-2-1.63-2.6a58.43,58.43,0,0,0,7.07,6.64C64,119.05,86,127.17,110.56,127.17c44,0,79.65-26,79.65-58.08S154.55,11,110.56,11"/></g><g class="cls-4"><path class="cls-5" d="M36.28,77.87c8.46,30.22,41.89,40.19,73.36,41.81,12.56.64,30.49-4.08,28.36-6.84-1.1-1.44-12.63.64-20.3-.18-17.85-1.93-25.24-26.14,8.29-23,43.51,4,43.93-10.38,43.93-10.38a39.35,39.35,0,0,0,1.44-9.18,40.65,40.65,0,0,0-.77-9.5A42.26,42.26,0,0,0,168,52.36c-.13-.32-.27-.63-.41-.94a47.69,47.69,0,0,0-4.83-8.24,57.22,57.22,0,0,0-11.41-11.53C139.55,23.86,123,19.8,105,21.1l-.46,0a96.57,96.57,0,0,0-11.73,1.05c-.52.07-1,.16-1.55.24,1.82-.62,3.66-1.2,5.51-1.72l.7-.19c2.57-.71,5.15-1.3,7.75-1.8a98.76,98.76,0,0,1,12.11-1.55c1.24-.08,2.47-.13,3.71-.16a86.72,86.72,0,0,1,11.61.48h.14c10.87,1,3.2-1.59.66-2.15a81.61,81.61,0,0,0-12.37-1.6,91.22,91.22,0,0,0-16.43.65c-2.56.32-5.12.77-7.65,1.31l-.5.11c-2.7.59-5.39,1.27-8,2.11s-5.28,1.76-7.87,2.81q-2.16.89-4.26,1.88c-1.14.53-2.26,1.09-3.39,1.67a84.46,84.46,0,0,0-14.3,9.35,72.67,72.67,0,0,0-6.45,5.88c-.46.47-.91,1-1.36,1.43a66.7,66.7,0,0,0-4.42,5.3,56.2,56.2,0,0,0-8.54,16.15s-3.39,9.13-1.61,15.48"/><path class="cls-6" d="M102.09,48.72h0"/><path class="cls-7" d="M89.72,96.53A49.66,49.66,0,0,0,85,94.06c-.27-.14-.54-.27-.8-.38-.51-.18-1-.34-1.49-.48l-.6-.16-.86-.23-.75-.16-.66-.15L79,92.35l-.53-.09-1-.13-.38,0L76,92l-.26,0-1.14-.08h-.14l-1.24,0c-3.43-.1-6.57.09-9.55-.21a28,28,0,0,1-4.29-.72c5.32,5.12,16.35,6.76,16.35,6.76l0,0h0a19.87,19.87,0,0,0,8-.26,17.08,17.08,0,0,1,5.9-.81"/><path class="cls-7" d="M88.59,99.39a15.74,15.74,0,0,1-3.9.75c2.65.77,5.44,1.67,7.77,2.61l.1,0a10.58,10.58,0,0,1,5.12-.53,57.24,57.24,0,0,0-4.74-3.6c-.09,0-1-.31-4.35.81"/><path class="cls-7" d="M101.45,71.6a23.48,23.48,0,0,0-1.62-4.74,34.16,34.16,0,0,0-5.65-8.29,59.24,59.24,0,0,0-7.42-6.82c-.66-.51-1.33-1-2-1.52l-.51-.37-.52-.4c-.34-.27-.68-.55-1-.85a19.16,19.16,0,0,1-3.41-4A21.41,21.41,0,0,1,77,39.89a26.46,26.46,0,0,1-1.12-4.26v-.06c-.93-5-3.24-4.13-5-2.5l-.27.26a13.63,13.63,0,0,0-1.3,1.48q-2.08,2.88-4,5.87a96.25,96.25,0,0,0-4.87,8.56,65.16,65.16,0,0,0-3.76,9.07c-.2.61-.39,1.22-.56,1.83,0,.09,0,.18-.08.27-.17.6-.32,1.21-.47,1.82a1.89,1.89,0,0,1-.05.23c-.31,1.31-.56,2.65-.74,4h0c-.06.47-.12.94-.16,1.41a32.91,32.91,0,0,0-.12,4.86,28.54,28.54,0,0,0,.63,4.8c.11.51.25,1,.39,1.52.1.23.21.46.32.69h0c.09.19.19.38.29.56l.09.18c.09.16.19.32.29.48l.15.25.29.44.2.28c.1.13.21.26.31.4l.24.29c.1.13.22.26.33.38s.18.21.28.31l.35.35.32.3.38.34.37.3.4.3.41.3.42.28.46.29.45.26.51.27.48.24.57.26.49.21c.21.09.43.16.64.24l.51.19.73.22.5.15.87.22.46.11q.67.15,1.41.27l.83.13h.09l.19,0,1.21.2.43.08,1,.17.45.09.93.18.39.08,1.24.27c-.23-.19-.46-.38-.68-.58a10.2,10.2,0,0,1-1.46-1.75,13.37,13.37,0,0,1-1.77-4.21,10.38,10.38,0,0,1-.26-2.29,8.37,8.37,0,0,1,.32-2.28,9.13,9.13,0,0,1,1.9-3.43l.43-.48a14.93,14.93,0,0,1,3.64-2.69A16,16,0,0,1,79.94,71,11.21,11.21,0,0,1,81,70.64l1.1-.26a24.84,24.84,0,0,1,4.3-.58h.17a14.35,14.35,0,0,1,4.51.51,8.74,8.74,0,0,1,2.11.91A7.41,7.41,0,0,1,95,72.72a7.49,7.49,0,0,1,1.23,2A10.08,10.08,0,0,1,96.89,77c.06.39.11.77.14,1.16s.06.77.08,1.15c0,.77.07,1.53.08,2.3A39.49,39.49,0,0,1,97,86.2a2.94,2.94,0,0,0,0,.32c0,.08,0,.18,0,.28h0c0,.58.07,1.36.82,1.45.57-.07,1.32-1.39,1.63-2a27.12,27.12,0,0,0,1.81-4.68,20.89,20.89,0,0,0,.75-5q0-.47,0-.93a19.74,19.74,0,0,0-.48-4.05M83.8,62a3.2,3.2,0,0,1-1.41.12l-1,.06c-.62,0-1.25.11-1.87.18q-1.87.21-3.72.6c-.61.14-1.21.29-1.82.47s-1.19.38-1.77.61-.91.39-1.36.61l-.35.19-.28.15c-1.72.6-3.13,2.7-3.17-.42a33.62,33.62,0,0,1,.64-7.51,16,16,0,0,1,1.93-5.12A8.13,8.13,0,0,1,72,49.39c.82-.48,1.93.16,2.56.88h0c1.6,2.09,4.65,4.68,8.27,8.55,2,2.11,1.67,2.9,1,3.18"/><path class="cls-6" d="M92.56,102.71l-.1,0c.53.21,1.07.44,1.6.67a42.47,42.47,0,0,1,4.72,2.38c3.77,2.25,2.19,0,1-1.55-.51-.63-1-1.13-1-1.13l-1.1-.94a10.58,10.58,0,0,0-5.12.53"/><path class="cls-6" d="M97.19,81.59c0-.77,0-1.53-.08-2.3,0-.38,0-.76-.08-1.15S97,77.37,96.89,77a10.05,10.05,0,0,0-.65-2.26,8,8,0,0,0-1.24-2,7.41,7.41,0,0,0-1.79-1.51,9.16,9.16,0,0,0-2.11-.91,14.65,14.65,0,0,0-4.51-.51h-.17a24.84,24.84,0,0,0-4.3.58c-.37.08-.73.17-1.1.27a8.9,8.9,0,0,0-1.08.33,17.51,17.51,0,0,0-2.07.94,15.12,15.12,0,0,0-3.64,2.69l-.43.48c.11,0,14-8.83,20.79,1.86C96.68,80.24,97,85.47,97,86.52a2.94,2.94,0,0,1,0-.32,39.49,39.49,0,0,0,.19-4.61"/><path class="cls-6" d="M74.55,50.27h0c-.63-.72-1.74-1.36-2.56-.87a8.06,8.06,0,0,0-2.32,2.54c.86-.61,2.09-.54,3.88,1.05s9.13,6.65,10.25,9c.68-.28,1-1.07-1-3.18-3.62-3.87-6.67-6.46-8.27-8.55"/><path class="cls-6" d="M74.12,89.28l-.93-.18L72.74,89l-1-.17-.43-.08-1.2-.2-.29,0L69,88.39q-.73-.12-1.41-.27L67.12,88l-.86-.22-.51-.15L65,87.42l-.51-.19c-.21-.08-.43-.15-.64-.24l-.49-.21-.57-.26-.48-.24L61.82,86l-.45-.26-.46-.29-.42-.28-.42-.3-.39-.3-.37-.3-.38-.34-.32-.3-.35-.35c-.1-.1-.19-.21-.28-.31l-.33-.38-.24-.29c-.1-.14-.21-.27-.31-.4l-.2-.28c-.1-.15-.2-.29-.29-.44l-.15-.25c-.1-.16-.2-.32-.29-.48l-.09-.18A13.08,13.08,0,0,1,55.47,79c-.14-.5-.28-1-.39-1.52a28.54,28.54,0,0,1-.63-4.8,32.91,32.91,0,0,1,.12-4.86c0-.47.1-.94.16-1.41.18-1.34.43-2.67.74-4,0-.08,0-.15.05-.23.15-.61.3-1.22.47-1.82,0-.09,0-.18.08-.26.17-.62.36-1.23.55-1.84a66.45,66.45,0,0,1,3.77-9.07,96.25,96.25,0,0,1,4.87-8.56q1.92-3,4-5.87a13.77,13.77,0,0,1,1.3-1.48S34.29,62.11,51.76,86.4a14.5,14.5,0,0,0,7.64,4.48,28,28,0,0,0,4.29.72c3,.3,6.12.11,9.55.21l1.24,0h.14l1.14.08L76,92l1.06.1.38,0,1,.13.53.09.86.15.66.15.75.16.86.23.6.16c.49.15,1,.3,1.49.48h0c-.44-1.51-3.31-2.89-8.45-4.06l-1.23-.27-.4-.08"/><path class="cls-6" d="M89.72,96.53a17.08,17.08,0,0,0-5.9.81,19.87,19.87,0,0,1-8,.26.94.94,0,0,0,.12.09,13.22,13.22,0,0,0,8.79,2.45,15.29,15.29,0,0,0,3.9-.75c3.34-1.12,4.26-.85,4.35-.81h0a3.52,3.52,0,0,0-3.23-2"/><path class="cls-6" d="M120.36,35.15l-.06-.3-.36-.6c-.59-.46-1.28-.25-2.35-.22-.28,0-.58,0-.9.08h0l-2.8.55-.59.12c-2.94.35-6.09.86-9.35,1.51l-1.11.22c-.11,0-.83.14-5.42.79C93.94,37.8,87.57,39,87.32,39a3.66,3.66,0,0,0-2.81,1.82l0,.55.12.37.47,1.54,1.52,5,0,.06,0,.07c.61,1.2,2.37,1.14,3,1.12a18,18,0,0,0,2.77-.37l8.54-1.69a8,8,0,0,1,.36,1.28l0,.21c0,.14,0,.35.1.62.09.55.22,1.36.4,2.44.41,2.46.94,5.29,1.56,8.42,1.41,7.11,2.11,10.74,2.44,12.52l.09.35.25.83c0,.08.07.23.08.27l.05.11.06.12.08.14a1.27,1.27,0,0,1,.11.43l1.81,9.14a3.4,3.4,0,0,0,.83,1.32,2.41,2.41,0,0,1,.53.83A1.92,1.92,0,0,0,111,87.88l.2.08.2,0c.92-.1,1.63-.2,2.1-.3l3.23-.64a2.13,2.13,0,0,0,1.59-1.37l.07-.18v-.19c-.39-6.7-1.07-7.94-1.17-8.44a16.57,16.57,0,0,0-.59-3.34,39,39,0,0,0-1.5-4.1c-3.15-15.86-4.28-21.75-4.6-23.58.49-.11,1.07-.26,1.72-.44.38-.1,1.53-.42,1.7-.45a3.49,3.49,0,0,1,.51,0,5.61,5.61,0,0,1,.55-.13h.25a8.58,8.58,0,0,0,1.61-.41H117l2.91-.57a3.15,3.15,0,0,0,1.72-.89l.19-.47-.08-.42ZM102.09,48.73h0"/><path class="cls-6" d="M151.63,55.16l0,0,0,0A10.72,10.72,0,0,0,152.92,49c-.17-5.32-1.32-8.67-3.53-10.23h0c-1.78-1.23-2.55-1.44-3-1.45h0l-.18,0-.69-.09-2.74-.32a43.78,43.78,0,0,0-6.07-.37h0c-1.36.11-3.15.38-5.3.78-2.62.5-3.14.58-3.23.6h0c-1.11,0-2.65.21-3.17,1.26-.21.39-.54,1.43.55,20.13h0l.49,6c.34,4.26.54,7.47.6,9.53l.25,7.76c0,1.13,1.47,1.38,1.94,1.46a22,22,0,0,0,4.16.17h0c.64,0,2.11-.32,2-2.59,0-.08,0-.14-.45-3.1a38.81,38.81,0,0,1-.47-3.94c-.22-6.9-.31-11.43-.27-13.5a35.77,35.77,0,0,1,5.22.16c.85,4,1.52,7,2,8.83h0c.83,3,1.51,5.23,2,6.7.38,1.94.66,3.4.83,4.35v0c.39,1.63,1.09,2.45,2.08,2.42a6.22,6.22,0,0,1,1.26.19,7.23,7.23,0,0,0,1.58.22h0a14.1,14.1,0,0,0,4-.77l1.22-.36.08-.61-.16-.91-.26-.32-.12-.19a20.93,20.93,0,0,1-2.33-5.84c-.33-2-.7-4-1.09-5.91V69.1c-1.37-4.65-2.38-7.94-3.06-10a27.13,27.13,0,0,0,4.54-3.92m-7.11-6.67a6.64,6.64,0,0,1-.24,1.17c-.22.89-.31,1.23-.35,1.34l0,.06v.06c-.33,2.69-1.53,4-3.79,4.06h0c-.15,0-.61,0-3,.25l-2.92.24s-.26-.21-.45-1.12c-.15-.75-.28-1.5-.37-2.22-.13-4.31-.21-6.77-.22-7.38a3.65,3.65,0,0,1-.08-.8c.43-.06,1.1-.32,1.8-.48a6.17,6.17,0,0,1,2.06-.19,15.84,15.84,0,0,1,1.65.19c1,.14,1.51.19,1.77.2s.81.2,1.31.26a2.56,2.56,0,0,1,2,1.11,5.31,5.31,0,0,1,.91,3.25M132.4,44.83h0Z"/><path class="cls-6" d="M185.47,61c.07-4.08-.79-7.36-2.56-9.75a15.43,15.43,0,0,0-2.23-2.31c-1.42-1.27-1.8-1.44-2.05-1.5a35.07,35.07,0,0,0-4.59-1h-.25c-.49,0-1.7-.09-3.57-.21l-.93-.06a9.15,9.15,0,0,0-2.9.28c-4.93,1.51-8.11,5.15-9.48,10.84-.38,1.58-.61,2.68-.71,3.38a38.43,38.43,0,0,0-.39,7.13c.12,5.35,1.27,9.43,3.4,12.13a10.14,10.14,0,0,0,5.57,3.85c.49.11,1.31.25,2.44.4s1.87.28,2.32.39a7.21,7.21,0,0,0,1.36.18,13.83,13.83,0,0,0,4.43-.72,8.26,8.26,0,0,0,3.39-1.94h0a17.71,17.71,0,0,0,3.2-4.23,23.12,23.12,0,0,0,2.23-5.87,47.13,47.13,0,0,0,1.31-11m-6.72.49c-.14.74-.33,1.91-.57,3.58-.1.65-.35,2.39-.39,2.57-.15.63-.68,2.44-1.56,5.37a7.49,7.49,0,0,1-1,1.3l0,0,0,.06c-1.45,2.27-2.24,2.92-2.58,3.1a4.06,4.06,0,0,1-1.64.4,2,2,0,0,1-.28,0l-.26,0a6.41,6.41,0,0,0-.76.05,4.74,4.74,0,0,1-.57,0h0l-1.76-.42a6.69,6.69,0,0,1-1.16-.35,2.6,2.6,0,0,1-1-1L165.1,76l-.11-.07c-.2-.13-.27-.52-.39-.63-2.08-3.56-2.4-8.42-1-14.42,0-.06.13-.37.79-2,.51-1.24.88-2.16,1.08-2.71h0A5.08,5.08,0,0,1,169,52.9h0a8.58,8.58,0,0,1,3.22-.45,13.43,13.43,0,0,1,2.61.37,6,6,0,0,1,1.72.94c1,.69,1.2,1,1.25,1.16l.27.68c.09.22.19.45.29.71a19.58,19.58,0,0,1,.26,2.19v.1a8.38,8.38,0,0,1,.14,2.86"/><path class="cls-6" d="M57.55,69a27.41,27.41,0,0,0-3.89-10.45,21.09,21.09,0,0,0-3.72-4.66,18.64,18.64,0,0,0-12.7-5.38,12,12,0,0,0-2.64.25c-3.26.66-7.43,2.58-12.75,5.88l-4.21,2.74-3.75,2.45c-1.65.72-4.63,3.73-4.63,3.73l1.1,1.62.14.2c.83,1.24,2.16,3.38,4,6.34C16.75,75.52,17,75.9,17.06,76h0v0L30.52,95.53c.44.65,11.81,16.75,13.32,18.31l1,1.58,1.55-.76a61,61,0,0,0,6-3.19l.07,0,.07,0a2.15,2.15,0,0,0,.95-2.36,7.16,7.16,0,0,0-.34-1c-.26-.61-.67-1.43-1.24-2.49-1-1.78-2.37-4.21-4.2-7.22-2.71-4.47-2.4-3.51-4.24-6.33l7.12-4.43A15.81,15.81,0,0,0,55,82.89a16.22,16.22,0,0,0,3.1-7.5v-.28a40.18,40.18,0,0,0-.6-6.08m-10.95,3a9.19,9.19,0,0,1-1.16,5,18.26,18.26,0,0,1-3.78,3.22l-.16.09-.13.11c-2.06,1.61-3.43,2.59-4.34,3.17l-1.87-2.8-.06-.08-.05-.07c-1.63-2-2.33-2.9-2.63-3.34l-.15-.28-.59-1-2.35-4.1c-1.71-3-3.21-5.45-4.48-7.45,1-.62,2.52-1.6,5-3.16a14,14,0,0,1,4.43-1.94,4.81,4.81,0,0,1,2.61.11h0c.28.1,1.51.68,5.55,4.13A16.92,16.92,0,0,1,45,66.45a9.91,9.91,0,0,1,1.61,5.62"/><path class="cls-6" d="M102.92,45.74h0"/><path class="cls-8" d="M111.68,95.87s0-.21,0-.58,0-.71,0-.88.12,0,.1,0l.15,0,.14,0h1.12a3.24,3.24,0,0,1,1.7.3,1.85,1.85,0,0,1,.76,1.18,2.33,2.33,0,0,1,0,.64,3.2,3.2,0,0,1-.27,1.2,4.71,4.71,0,0,1-.32.61,1.67,1.67,0,0,1-.67.49,1.53,1.53,0,0,1-.62.16h-1.18c0,.67-.06,1-.18,1s-.46,0-.74-.1a8.4,8.4,0,0,1,0-1.11Zm.9,1.07a4.87,4.87,0,0,0,0,.52v.62a4.13,4.13,0,0,0,.86,0,2.49,2.49,0,0,0,.65-.1,1.33,1.33,0,0,0,.54-.52,1.5,1.5,0,0,0,.23-.78,2.41,2.41,0,0,0-.06-.49,2.94,2.94,0,0,0-.3-.83,1.1,1.1,0,0,0-1-.35c-.67,0-1,0-.9,0,0,.31,0,.72-.05,1.22s0,.76,0,.74"/><path class="cls-8" d="M120.92,97.81s0,.14,0,.33,0,.31,0,.34v1c0,.22,0,.35,0,.36h-.45a1.82,1.82,0,0,1-.38-.08,5.07,5.07,0,0,1-.06-1c0-.56,0-.91,0-1.05a13,13,0,0,0-1.58,0l-.23,0-.26,0a.11.11,0,0,0-.09.06c0,.47,0,1.18,0,2.11a4,4,0,0,1-.82.09l-.09,0-.06,0c0-.29,0-.74,0-1.34s0-.88,0-.86a7.27,7.27,0,0,1,.08-1.1c0-.16.07-.39.13-.67s.19-.5.28-.74a1.44,1.44,0,0,1,.56-.67,2.21,2.21,0,0,1,.69-.28l.51-.12.3,0,.28,0a0,0,0,0,1,0,0s0,0,0,0a.88.88,0,0,1,.57.27,1.22,1.22,0,0,1,.32.45,2.77,2.77,0,0,1,.16.31c.06.32.12.8.18,1.43ZM120,96.4c0-.07,0-.29-.07-.65a1.79,1.79,0,0,0-.14-.51.66.66,0,0,0-.58-.32.41.41,0,0,0-.15,0,.89.89,0,0,0-.32,0l-.3.17a1.09,1.09,0,0,0-.45.54,1.93,1.93,0,0,0-.2.85.56.56,0,0,0,0,.26,5,5,0,0,1,.71-.07c.16,0,.39,0,.7,0h.46a1.11,1.11,0,0,1,.26,0s0-.08,0-.16a.49.49,0,0,0,0-.14"/><path class="cls-8" d="M124.84,95.23a.29.29,0,0,1-.15.06l-.35,0-.13,0-.13,0h-.2l-.28,0s0,.92,0,2.73c0,.08,0,.24.08.48s0,.32,0,.35,0,.39-.12.93a.14.14,0,0,1-.12.08h-.36l-.23,0s-.07-.06-.07-.1a.39.39,0,0,0,0-.14.24.24,0,0,1,0-.12V98.43a.07.07,0,0,0,0,0c0,.14,0-.38,0-1.57,0-.35,0-.66,0-.94a2.59,2.59,0,0,1,0-.35c0-.16,0-.25-.06-.25h-.5c-.32,0-.49,0-.52-.14,0-.25,0-.49-.07-.74a.36.36,0,0,1,.26-.14l.62,0,.6,0h.13c.37,0,.71,0,1,0h.33a.41.41,0,0,1,.29.1Z"/><path class="cls-8" d="M128.71,99.76a2,2,0,0,1-.52.09l-.18,0-.17,0c-.08,0-.13-.08-.17-.24s0-.3-.08-.55-.14-.46-.23-.84q-.08-.34-.21-1.11l0,0a5,5,0,0,0-.79,0c0,.21,0,.8,0,1.76,0,.09,0,.26,0,.5s0,.37,0,.38-.06.22-.17.22c-.45,0-.67,0-.67-.14v-1c0-.26,0-.65,0-1.18l0-.75a19.76,19.76,0,0,1,0-2.45c0-.07.14-.1.32-.1l.42-.06c.26,0,.48-.07.65-.08a6.42,6.42,0,0,1,.73.07l.45.07a.76.76,0,0,1,.33.18c.24.18.36.58.36,1.21a1.28,1.28,0,0,1-.16.69,3.58,3.58,0,0,1-.62.49c.08.26.2.7.36,1.31,0,.24.08.49.11.74a2.57,2.57,0,0,0,.28.76Zm-.82-4.24c0-.41-.16-.62-.48-.62,0,0,0,0,0,0a0,0,0,0,0-.05,0l-.23,0-.21,0-.25,0-.28,0a.38.38,0,0,1,0,.17V96a2.89,2.89,0,0,0,0,.29c0,.14.07.21.14.21l.37,0h.36c.33,0,.52-.19.58-.57,0,0,0-.08,0-.17s0-.14,0-.16"/><path class="cls-8" d="M133.09,97.56a3.51,3.51,0,0,1-.1.89,2.76,2.76,0,0,1-.28.69,1.06,1.06,0,0,1-.37.36,1.41,1.41,0,0,1-.71.26l-.33,0-.33,0a1.23,1.23,0,0,1-.81-.34,2.86,2.86,0,0,1-.81-1.56,5.86,5.86,0,0,1-.18-1c0-.1,0-.26,0-.5a1.94,1.94,0,0,1,.87-1.78,1.23,1.23,0,0,1,.48-.15l.52-.1h.63a1,1,0,0,1,.28.13,1.9,1.9,0,0,1,.35.24,2.24,2.24,0,0,1,.63,1.25,7.5,7.5,0,0,1,.17,1.58m-.81-.4s0-.14,0-.38,0-.42,0-.53a1.13,1.13,0,0,0-.12-.43,1.76,1.76,0,0,0-.11-.33l-.12-.19a.6.6,0,0,0-.25-.15.7.7,0,0,0-.29-.08,1.39,1.39,0,0,0-.82.22.82.82,0,0,0-.4.66q0,.14-.06.42c0,.2,0,.3,0,.32a3,3,0,0,0,.62,2.1l.1,0,.18.17h.46l.1,0,.11,0a.53.53,0,0,0,.3-.13,1.63,1.63,0,0,0,.27-.58.86.86,0,0,0,.1-.25c0-.46,0-.74,0-.84"/><path class="cls-8" d="M134.53,95.35a6.16,6.16,0,0,1,.07-.92,1.89,1.89,0,0,1,.5-.11,4.33,4.33,0,0,0,.5,0l.53,0a2.4,2.4,0,0,1,.46,0,4.48,4.48,0,0,1,.72.2,1.5,1.5,0,0,1,.58.45,5.86,5.86,0,0,1,.31.61,4.45,4.45,0,0,1,.27,1.2,3.9,3.9,0,0,1,0,1.19,2.34,2.34,0,0,1-.71,1.51,3.31,3.31,0,0,1-1.71.3l-.56,0h-.56a.41.41,0,0,1-.15,0l-.14,0s0,0-.1,0c0-.18,0-.48,0-.89s0-.55,0-.57Zm.89,2.29c.05.62.07,1.08.07,1.39h.9a1,1,0,0,0,1-.68,6.62,6.62,0,0,0,.21-1.37c0-.34,0-.56,0-.66a1.29,1.29,0,0,0-.22-.63,1.36,1.36,0,0,0-.52-.5.68.68,0,0,0-.31-.08,1.67,1.67,0,0,0-.34,0,3.8,3.8,0,0,0-.76.09q0,.22,0,.54a10.17,10.17,0,0,0-.06,1s0,.28.07.9"/><path class="cls-8" d="M139.21,96s0-.13,0-.33,0-.31,0-.33v-1a1.71,1.71,0,0,1,0-.36h.24l.21,0a1.86,1.86,0,0,1,.36.08,8.65,8.65,0,0,1,.07,1.52c0,.13,0,.33,0,.59s0,.39,0,.41v1a1.63,1.63,0,0,0,0,.18.8.8,0,0,1,0,.21c.07.59.35.89.86.89a1.25,1.25,0,0,0,.63-.23,1.57,1.57,0,0,0,.36-.25,1.66,1.66,0,0,0,.3-1V96.15c0-.62,0-1,0-1.16a3.64,3.64,0,0,1,0-.48,1,1,0,0,1,0-.52,5.34,5.34,0,0,1,.83-.07.41.41,0,0,1,.15,0c0,.28,0,.72,0,1.32s0,.89,0,.87a7.45,7.45,0,0,1-.07,1.1c0,.16-.07.39-.14.67l-.27.75a1.61,1.61,0,0,1-.55.67,2.77,2.77,0,0,1-.71.27l-.52.13-.28,0-.3,0a0,0,0,0,1-.05,0s0,0,0,0a.88.88,0,0,1-.56-.28,1,1,0,0,1-.33-.44,1.87,1.87,0,0,1-.16-.32c-.06-.32-.12-.79-.19-1.42Z"/><path class="cls-8" d="M150.8,94.63a1.7,1.7,0,0,1-.15.34,5,5,0,0,0-.19.47c0,.12-.06.29-.11.5s-.23.69-.38,1.2l-.39,1.47c-.21.72-.39,1.08-.55,1.08l-.2,0-.2,0a.5.5,0,0,0-.16,0l-.15,0a.93.93,0,0,1-.24-.07.59.59,0,0,1-.22-.15c0-.06-.17-.33-.39-.82a2.35,2.35,0,0,1-.16-.61,4.78,4.78,0,0,0-.15-.64,18,18,0,0,1-.69-1.68c-.24-.76-.36-1.15-.36-1.19,0-.21.31-.31.93-.31a4.6,4.6,0,0,1,.24.76,8.93,8.93,0,0,0,.23.87c.06.15.21.64.47,1.48a4.67,4.67,0,0,0,.52,1.25,5.37,5.37,0,0,0,.24-1c.1-.5.18-.84.24-1s.11-.4.2-.71.22-.54.39-1a.94.94,0,0,1,.1-.42.24.24,0,0,1,.22-.12l.18,0,.17,0c.37,0,.56.07.56.22"/><path class="cls-8" d="M155.45,97.7s0,.14,0,.33,0,.31,0,.33v1a2.3,2.3,0,0,1,0,.36h-.24l-.21,0a1.56,1.56,0,0,1-.37-.07,5.91,5.91,0,0,1-.07-1c0-.55,0-.9,0-1a15.4,15.4,0,0,0-1.57-.05l-.24,0-.25,0a.17.17,0,0,0-.1.07c0,.47,0,1.17,0,2.11a4,4,0,0,1-.83.08h-.08l-.07,0c0-.29,0-.74,0-1.34s0-.89,0-.86a7.36,7.36,0,0,1,.07-1.1c0-.17.07-.39.14-.67l.27-.74a1.44,1.44,0,0,1,.56-.67,2.17,2.17,0,0,1,.7-.28l.5-.12.3,0h.29a0,0,0,0,1,0,0s0,0,0,0a.88.88,0,0,1,.58.27,1.22,1.22,0,0,1,.32.45l.16.31c.06.32.11.79.17,1.43Zm-.9-1.41c0-.07,0-.29-.08-.65a1.51,1.51,0,0,0-.14-.51.63.63,0,0,0-.57-.32.47.47,0,0,0-.15,0,.82.82,0,0,0-.32,0L153,95a1.1,1.1,0,0,0-.46.54,1.89,1.89,0,0,0-.19.85.79.79,0,0,0,0,.26c.27,0,.51-.07.72-.08h.69l.47,0a.73.73,0,0,1,.26,0s0-.09,0-.16,0-.12,0-.14"/><path class="cls-8" d="M159,99.21c0,.34-.05.5-.13.5l-.08,0-.08,0h-.28l-.28,0a.09.09,0,0,1-.07,0,.11.11,0,0,0-.08,0l-.12,0-.12,0h-.41l-.43,0-.43,0a.5.5,0,0,1-.28-.11c0-.32,0-.69,0-1.13,0-.29,0-.63-.05-1l0-2.4c0-.22,0-.55.08-1l.44,0,.33,0c.16,0,.25.06.26.18a8.11,8.11,0,0,1,0,1.12c0,.48,0,.89,0,1.22,0,0,0,.13,0,.23a3.84,3.84,0,0,1,0,.6c0,.3,0,.54,0,.7a2.39,2.39,0,0,0,0,.51,1.23,1.23,0,0,0,.4.12,5.3,5.3,0,0,1,1.35.12,1.27,1.27,0,0,1,.07.48"/><path class="cls-8" d="M111.86,103.33a6.16,6.16,0,0,1,.07-.92,1.89,1.89,0,0,1,.5-.11,4.33,4.33,0,0,0,.5,0,4.12,4.12,0,0,1,.53,0,2.4,2.4,0,0,1,.46.05,3.61,3.61,0,0,1,.72.2,1.5,1.5,0,0,1,.58.45,5.86,5.86,0,0,1,.31.61,4.45,4.45,0,0,1,.27,1.2,3.83,3.83,0,0,1,0,1.18,2.34,2.34,0,0,1-.71,1.52,3.33,3.33,0,0,1-1.71.29h-1.12a.41.41,0,0,1-.15,0l-.14,0s0,0-.1,0c0-.19,0-.48,0-.89s0-.56,0-.57Zm.89,2.29c0,.61.07,1.08.07,1.38h.9a1,1,0,0,0,1-.67,6.75,6.75,0,0,0,.21-1.37c0-.34,0-.56,0-.67a1.5,1.5,0,0,0-.74-1.12.85.85,0,0,0-.31-.09h-.34a3.8,3.8,0,0,0-.76.09c0,.15,0,.33,0,.53,0,.4-.06.74-.06,1,0,0,0,.28.07.9"/><path class="cls-8" d="M119.44,107.5c-.18.09-.26.13-.24.13h-.15l-.15,0h-1.69a1.17,1.17,0,0,1-.37-.14.59.59,0,0,0-.06-.12,3.48,3.48,0,0,1-.09-.89,6.71,6.71,0,0,0,0-.88c0-.15,0-.32,0-.51s0-.22,0-.38,0-.24,0-.25v-1.65c0-.21.06-.32.18-.34s.55-.07,1.09-.11c.3,0,.65,0,1,0a1,1,0,0,1,.45.13v.69l-.16.06a.46.46,0,0,1-.18.06l-.46,0-.46,0-.18,0-.18,0a.26.26,0,0,0-.28.19v.38a3.31,3.31,0,0,0,0,.58c0,.22.16.32.35.32a.35.35,0,0,0,.12,0l.14,0c.13,0,.21.09.22.26s0,.29,0,.43a.45.45,0,0,1-.31.14l-.37,0a1.27,1.27,0,0,0-.07.12,1,1,0,0,0,0,.32c0,.49.21.74.61.74h1a.61.61,0,0,1,.2.08Z"/><path class="cls-8" d="M127.39,104.22c0,1.37,0,2.18-.06,2.45s0,.29,0,.43a.41.41,0,0,1-.15.35,1.07,1.07,0,0,1-.31.14.77.77,0,0,1-.34-.06.41.41,0,0,1-.23-.34q0-1.26,0-3c0-.09,0-.17,0-.24a1.56,1.56,0,0,0-.16-.72c-.11-.21-.24-.3-.4-.3a.36.36,0,0,0-.23.08.29.29,0,0,0-.14.16,4.21,4.21,0,0,1-.15.44,2.34,2.34,0,0,0-.08.53.68.68,0,0,1-.31.18h-.48c-.05,0-.1,0-.15-.11s-.06-.43-.1-.76a.72.72,0,0,0-.12-.3.3.3,0,0,0-.24-.15.88.88,0,0,0-.54.18.85.85,0,0,0-.3.64q0,3.25,0,3.75s-.06,0-.06.11l-.45,0-.28,0c-.16,0-.23-.89-.21-2.66a1,1,0,0,0,0-.14v-.15c0-.06,0-.17,0-.33s0-.24,0-.25a1.81,1.81,0,0,1,.13-.67l.2-.48a1.33,1.33,0,0,1,.42-.5,2.16,2.16,0,0,1,.77-.31,3.16,3.16,0,0,1,.8-.07s.1.07.23.19a.93.93,0,0,1,.22.31,4.9,4.9,0,0,1,.57-.44,1.32,1.32,0,0,1,.52-.06,1.45,1.45,0,0,1,1.07.35,1.22,1.22,0,0,1,.54.72c0,.67.06,1,.06,1.12"/><path class="cls-8" d="M132.15,105.53s0,.14,0,.33,0,.31,0,.33v1a1.71,1.71,0,0,1,0,.36h-.23l-.21,0a1.62,1.62,0,0,1-.38-.07,5.18,5.18,0,0,1-.06-1c0-.56,0-.91,0-1a15.65,15.65,0,0,0-1.58,0l-.23,0-.26,0a.13.13,0,0,0-.09.07c0,.47,0,1.17,0,2.11a4.74,4.74,0,0,1-.82.08.15.15,0,0,1-.09,0l-.06,0c0-.29,0-.73,0-1.33s0-.89,0-.86a7.18,7.18,0,0,1,.08-1.1c0-.17.07-.39.13-.67s.18-.5.28-.74a1.45,1.45,0,0,1,.55-.68,2.69,2.69,0,0,1,.7-.27l.51-.13.3,0,.28,0s0,0,0,0a0,0,0,0,0,.05,0,.9.9,0,0,1,.57.28,1.22,1.22,0,0,1,.32.45,2.77,2.77,0,0,1,.16.31c.06.32.12.79.18,1.42Zm-.9-1.41a6.46,6.46,0,0,0-.07-.65A1.79,1.79,0,0,0,131,103a.69.69,0,0,0-.58-.33l-.15,0a1.22,1.22,0,0,0-.32,0l-.3.18a1.15,1.15,0,0,0-.46.54,1.85,1.85,0,0,0-.19.84.58.58,0,0,0,0,.27,5,5,0,0,1,.71-.08H131a.64.64,0,0,1,.26,0s0-.09,0-.16,0-.12,0-.14"/><path class="cls-8" d="M132.69,103.81s0-.13,0-.33,0-.31,0-.33v-1a2.3,2.3,0,0,1,0-.36h.46a1.59,1.59,0,0,1,.36.09,8.65,8.65,0,0,1,.07,1.52c0,.13,0,.33,0,.59s0,.39,0,.41v1a.73.73,0,0,0,0,.18,1.72,1.72,0,0,1,0,.21c.06.59.35.89.86.89a1.19,1.19,0,0,0,.62-.23,1.57,1.57,0,0,0,.36-.25,1.66,1.66,0,0,0,.3-1V104c0-.62,0-1,0-1.16,0,.05,0-.12,0-.48a1.12,1.12,0,0,1,0-.52,5.23,5.23,0,0,1,.82-.07l.15,0c0,.29,0,.73,0,1.33s0,.89,0,.86a6.29,6.29,0,0,1-.08,1.11c0,.16-.07.39-.13.67l-.28.75a1.44,1.44,0,0,1-.55.66,2.34,2.34,0,0,1-.71.28l-.51.12h-.29l-.29,0s-.05,0-.05,0a0,0,0,0,0,0,0,.88.88,0,0,1-.57-.27,1.06,1.06,0,0,1-.32-.44,1.87,1.87,0,0,1-.16-.32c-.06-.32-.12-.79-.19-1.42Z"/><path class="cls-8" d="M140.74,107.48a2,2,0,0,1-.53.08l-.17,0-.18,0c-.07,0-.13-.08-.16-.23s0-.3-.09-.55-.13-.47-.22-.84-.12-.6-.21-1.11a.09.09,0,0,0,0,0,4.78,4.78,0,0,0-.78,0c0,.21,0,.79,0,1.76,0,.09,0,.26,0,.5s.05.36.05.37-.06.23-.18.23c-.44,0-.66,0-.66-.14v-1c0-.26,0-.65,0-1.19l0-.75a19.56,19.56,0,0,1,0-2.44c0-.07.14-.1.32-.1l.41-.07c.27,0,.49-.06.65-.07a4.72,4.72,0,0,1,.74.07l.45.07a.69.69,0,0,1,.32.17,1.5,1.5,0,0,1,.37,1.21,1.22,1.22,0,0,1-.17.7,3.45,3.45,0,0,1-.61.49c.08.25.2.69.36,1.31,0,.24.08.48.11.73a2.47,2.47,0,0,0,.28.76Zm-.83-4.25c0-.41-.15-.61-.47-.61,0,0,0,0,0,0a.05.05,0,0,0-.05,0l-.23,0-.22,0-.25,0a1.31,1.31,0,0,1-.27,0,.34.34,0,0,1,0,.16v.94c0,.09,0,.19,0,.29s.07.21.14.21l.36,0,.37,0c.33,0,.52-.19.58-.56a.82.82,0,0,1,0-.17,1,1,0,0,0,0-.17"/><path class="cls-8" d="M145.39,105.53s0,.14,0,.33,0,.31,0,.33v1a2.3,2.3,0,0,1,0,.36h-.24l-.21,0a1.56,1.56,0,0,1-.37-.07,5.08,5.08,0,0,1-.07-1c0-.56,0-.91,0-1a15.4,15.4,0,0,0-1.57,0l-.24,0-.26,0a.18.18,0,0,0-.09.07c0,.47,0,1.17,0,2.11a4.85,4.85,0,0,1-.83.08.18.18,0,0,1-.09,0l-.06,0c0-.29,0-.73,0-1.33s0-.89,0-.86a7.27,7.27,0,0,1,.07-1.1c0-.17.07-.39.14-.67l.27-.74a1.47,1.47,0,0,1,.56-.68,2.48,2.48,0,0,1,.69-.27l.51-.13.3,0,.29,0s0,0,0,0,0,0,0,0a.86.86,0,0,1,.57.28,1.15,1.15,0,0,1,.33.45l.16.31c.06.32.11.79.17,1.42Zm-.89-1.41c0-.08,0-.29-.08-.65a1.51,1.51,0,0,0-.14-.51.67.67,0,0,0-.57-.33l-.15,0a1.31,1.31,0,0,0-.33,0l-.3.18a1.14,1.14,0,0,0-.45.54,1.85,1.85,0,0,0-.19.84.82.82,0,0,0,0,.27,5.31,5.31,0,0,1,.71-.08h1.17a.68.68,0,0,1,.26,0,.56.56,0,0,1,0-.16c0-.08,0-.12,0-.14"/><path class="cls-8" d="M149.81,104.94a7.22,7.22,0,0,1-.18,2,1,1,0,0,1-.67.51,2.22,2.22,0,0,1-.82.18s-.06,0-.07,0l-.07,0s0,0-.07,0a.08.08,0,0,0-.07,0l-.2,0-.19,0h-.7a.47.47,0,0,1-.17-.07,5.65,5.65,0,0,1-.11-.56.22.22,0,0,1,.06-.13c0-.05.07-.07.09-.07a17.06,17.06,0,0,0,1.81,0,.67.67,0,0,0,.3-.11.29.29,0,0,0,.16-.19A1,1,0,0,0,149,106c0-.15,0-.23,0-.25a2.66,2.66,0,0,1-.8.25l-.13,0-.14,0h-.38s-.05,0-.05,0a0,0,0,0,0-.05,0,1.08,1.08,0,0,1-.5-.23c-.23-.16-.36-.28-.38-.36a1.52,1.52,0,0,1-.13-.28,2.42,2.42,0,0,1-.15-.78,2.3,2.3,0,0,1,1-2,1.52,1.52,0,0,1,.57-.16,4.24,4.24,0,0,1,.52-.06h.28l.58,0a1.07,1.07,0,0,1,.52.09,19.28,19.28,0,0,1,.11,2.67m-.95,0c.1-1.11.08-1.72-.07-1.84a.56.56,0,0,0-.3-.12.73.73,0,0,0-.29,0,1.39,1.39,0,0,0-.92.46,1.09,1.09,0,0,0-.2.8.94.94,0,0,0,.67.93,1.46,1.46,0,0,0,.34,0,1.31,1.31,0,0,0,.51-.1l.17,0a.16.16,0,0,0,.09-.16"/><path class="cls-8" d="M153.17,107.35l-.24.13h-.15l-.15,0H151a1.19,1.19,0,0,1-.38-.14q0-.11-.06-.12a3.55,3.55,0,0,1-.08-.89c0-.43,0-.73,0-.88s0-.32,0-.51,0-.22,0-.38,0-.24,0-.25v-1.65c0-.21.06-.32.17-.34s.56-.07,1.09-.11c.31,0,.65,0,1,0a1,1,0,0,1,.45.13v.69l-.16.06a.59.59,0,0,1-.18.06l-.46,0-.46,0-.19,0-.18,0a.24.24,0,0,0-.27.19v.38c0,.3,0,.5,0,.58s.17.32.35.32a.37.37,0,0,0,.13,0l.14,0c.13,0,.2.09.22.26s0,.29,0,.43a.43.43,0,0,1-.31.14l-.36,0a.47.47,0,0,0-.07.12,1,1,0,0,0,0,.32c0,.49.2.74.61.74h1a.53.53,0,0,1,.2.08Z"/><path class="cls-8" d="M160.58,95.35a6.25,6.25,0,0,1,.08-.92,1.79,1.79,0,0,1,.5-.11,4.55,4.55,0,0,0,.5,0l.52,0a2.31,2.31,0,0,1,.46,0,5.06,5.06,0,0,1,.73.2,1.54,1.54,0,0,1,.57.45,4.35,4.35,0,0,1,.31.61,4.08,4.08,0,0,1,.28,1.2,3.9,3.9,0,0,1,0,1.19,2.34,2.34,0,0,1-.71,1.51,3.36,3.36,0,0,1-1.71.3l-.57,0H161a.43.43,0,0,1-.14,0l-.14,0s0,0-.1,0c0-.18,0-.48,0-.89s0-.55,0-.57Zm.9,2.29c0,.62.06,1.08.06,1.39h.9a1,1,0,0,0,1-.68,5.8,5.8,0,0,0,.22-1.37,5.92,5.92,0,0,0,0-.66,1.39,1.39,0,0,0-.21-.63,1.36,1.36,0,0,0-.52-.5.72.72,0,0,0-.32-.08,1.46,1.46,0,0,0-.33,0,4,4,0,0,0-.77.09c0,.15,0,.33,0,.54a10.17,10.17,0,0,0-.06,1s0,.28.07.9"/><path class="cls-8" d="M167.06,95.53a2.18,2.18,0,0,1-.18.86,2.22,2.22,0,0,1-.37.4c-.2.18-.35.28-.45.28a.53.53,0,0,1-.2-.07c-.09,0-.13-.1-.13-.16a.67.67,0,0,1,.06-.16l.35-.23a.8.8,0,0,0,.21-.35.5.5,0,0,0-.27-.07.69.69,0,0,1-.59-.38.93.93,0,0,1-.18-.5,1.57,1.57,0,0,1,.05-.32.39.39,0,0,1,.17-.2,1.18,1.18,0,0,1,.67-.19.73.73,0,0,1,.66.45,1.22,1.22,0,0,1,.2.64"/><path class="cls-8" d="M170.41,99a2.11,2.11,0,0,1,0,.57c-.06.12-.2.19-.43.19s-.42-.18-.44-.52c0,0,0-.09,0-.17s0-.15,0-.19a9.88,9.88,0,0,0,0-1.37c-.05-.36-.19-.53-.42-.53a2,2,0,0,0-.49,0,11.65,11.65,0,0,0,0,2l.12.61a.77.77,0,0,1-.55.2.71.71,0,0,1-.33-.19q0-.14-.09-1.8c0-.28,0-.7-.08-1.27l-.07-.81v-1.1s0-.09,0-.2a1,1,0,0,0,0-.25,1.12,1.12,0,0,1,.51-.11c.28,0,.41.18.41.55V95.9a.63.63,0,0,0,.38.07h.21a1.25,1.25,0,0,1,.64.23c.47.3.71,1.23.71,2.78"/><path class="cls-8" d="M175.16,97.7s0,.14,0,.33,0,.31,0,.33v1a2.3,2.3,0,0,1,0,.36h-.24l-.21,0a1.56,1.56,0,0,1-.37-.07,5.08,5.08,0,0,1-.07-1c0-.55,0-.9,0-1a15.4,15.4,0,0,0-1.57-.05l-.24,0-.26,0a.18.18,0,0,0-.09.07c0,.47,0,1.17,0,2.11a4,4,0,0,1-.83.08h-.09a.1.1,0,0,0-.06,0c0-.29,0-.74,0-1.34s0-.89,0-.86a7.36,7.36,0,0,1,.07-1.1c0-.17.07-.39.14-.67l.27-.74a1.44,1.44,0,0,1,.56-.67,2.21,2.21,0,0,1,.69-.28l.51-.12.3,0h.29a0,0,0,0,1,0,0s0,0,0,0a.84.84,0,0,1,.57.27,1.15,1.15,0,0,1,.33.45l.16.31c.06.32.11.79.17,1.43Zm-.89-1.41c0-.07,0-.29-.08-.65a1.51,1.51,0,0,0-.14-.51.64.64,0,0,0-.57-.32l-.15,0a.92.92,0,0,0-.33,0l-.3.17a1.14,1.14,0,0,0-.45.54,1.89,1.89,0,0,0-.19.85.79.79,0,0,0,0,.26c.27,0,.51-.07.71-.08h.7l.47,0a.76.76,0,0,1,.26,0,.56.56,0,0,1,0-.16c0-.08,0-.12,0-.14"/><path class="cls-8" d="M177,96.43c0-.09,0,.24,0,1s0,1.26,0,1.62a3.49,3.49,0,0,1,0,.44.81.81,0,0,1-.1.3s-.09,0-.25,0a.26.26,0,0,0-.11,0h-.1a2.07,2.07,0,0,1-.32,0s-.09,0-.15-.14,0-.45,0-.83c0,0,0-.11,0-.24s0-.23,0-.28c0-.42,0-1.17,0-2.24V95.05l0-.07a.32.32,0,0,1,0-.09c0-.12,0-.35,0-.68l.08,0,.25-.06.17,0,.2.07a1.33,1.33,0,0,0,.34.09c.07,1.45.11,2.18.11,2.21"/><path class="cls-8" d="M181.92,97.69s0,.15,0,.34,0,.31,0,.33v1a1.71,1.71,0,0,1,0,.36l-.24,0-.22,0a1.6,1.6,0,0,1-.36-.07,8.42,8.42,0,0,1-.08-1.51c0-.14,0-.33,0-.59s0-.4,0-.41V96a.65.65,0,0,0,0-.18,1.72,1.72,0,0,1,0-.21c-.06-.59-.35-.89-.86-.89a1.26,1.26,0,0,0-.62.22,1.69,1.69,0,0,0-.36.26,1.66,1.66,0,0,0-.3,1v1.32c0,.61-.05,1-.05,1.15,0,0,0,.12,0,.49a1.09,1.09,0,0,1,0,.51,5.11,5.11,0,0,1-.81.07.34.34,0,0,1-.15,0c0-.28,0-.72,0-1.33s0-.89,0-.86a7,7,0,0,1,.08-1.09c0-.17.07-.39.13-.67s.19-.5.28-.75a1.39,1.39,0,0,1,.55-.66,2.45,2.45,0,0,1,.71-.28L180,94h.58s0,0,0,0,0,0,.05,0a.88.88,0,0,1,.56.27,1.06,1.06,0,0,1,.32.44,1,1,0,0,1,.16.32c.06.31.12.78.19,1.41Z"/><path class="cls-8" d="M185.2,99.52l-.24.13h-.15l-.15,0H183a1.19,1.19,0,0,1-.38-.14c0-.06,0-.11-.06-.12a3.51,3.51,0,0,1-.08-.88c0-.44,0-.74,0-.89s0-.31-.05-.51,0-.22,0-.37,0-.24,0-.26V94.88c0-.21.06-.32.17-.34s.56-.07,1.09-.11c.31,0,.65,0,1,0a1,1,0,0,1,.45.12v.69l-.16.06a.59.59,0,0,1-.18.06l-.46,0-.46,0-.19,0a.65.65,0,0,0-.18,0,.24.24,0,0,0-.27.19v.39a5.62,5.62,0,0,0,0,.57c0,.22.17.33.35.33l.13,0a.39.39,0,0,1,.14,0c.13,0,.2.08.22.26s0,.28,0,.42a.47.47,0,0,1-.31.15l-.36,0a.75.75,0,0,0-.07.12,1,1,0,0,0,0,.32c0,.49.2.74.61.74h1a.66.66,0,0,1,.2.09Z"/></g></g></g></svg>